<svg xmlns="http://www.w3.org/2000/svg" viewBox="0 0 256 256" role="img" aria-labelledby="title desc">
<title id="title">Lency icon</title>
<desc id="desc">A dynamic ribbon-like L emblem with a nested core, expressing clarity, structure, and bootstrap recursion.</desc>
<defs>
<linearGradient id="body" x1="60" y1="48" x2="182" y2="208" gradientUnits="userSpaceOnUse">
<stop offset="0" stop-color="#0f3d56"/>
<stop offset="0.52" stop-color="#165a67"/>
<stop offset="1" stop-color="#1f7a74"/>
</linearGradient>
<linearGradient id="highlight" x1="116" y1="66" x2="210" y2="142" gradientUnits="userSpaceOnUse">
<stop offset="0" stop-color="#f1c36a"/>
<stop offset="1" stop-color="#cf7d2f"/>
</linearGradient>
<linearGradient id="glow" x1="128" y1="36" x2="128" y2="220" gradientUnits="userSpaceOnUse">
<stop offset="0" stop-color="#ffffff" stop-opacity="0.18"/>
<stop offset="1" stop-color="#ffffff" stop-opacity="0"/>
</linearGradient>
</defs>
<path d="M84 42C69.64 42 58 53.64 58 68V188C58 202.36 69.64 214 84 214H171C185.36 214 197 202.36 197 188V172C197 157.64 185.36 146 171 146H145V68C145 53.64 133.36 42 119 42H84ZM89 68H111C115.42 68 119 71.58 119 76V166C119 172.63 124.37 178 131 178H171V186C171 190.42 167.42 194 163 194H92C87.58 194 84 190.42 84 186V73C84 70.24 86.24 68 89 68Z" fill="url(#body)"/>
<path d="M145 68V146H171C185.36 146 197 157.64 197 172V188C197 202.36 185.36 214 171 214H163C176.25 214 187 203.25 187 190V175C187 163.4 177.6 154 166 154H139V76C139 61.64 127.36 50 113 50H84C70.75 50 60 60.75 60 74V68C60 53.64 71.64 42 86 42H119C133.36 42 145 53.64 145 68Z" fill="url(#glow)"/>
<path d="M148 66C141.37 66 136 71.37 136 78V122C136 128.63 141.37 134 148 134H178C184.63 134 190 128.63 190 122V78C190 71.37 184.63 66 178 66H148ZM154 82H172C175.31 82 178 84.69 178 88V112C178 115.31 175.31 118 172 118H154C150.69 118 148 115.31 148 112V88C148 84.69 150.69 82 154 82Z" fill="url(#highlight)"/>
<path d="M157 90H169C170.66 90 172 91.34 172 93V107C172 108.66 170.66 110 169 110H157C155.34 110 154 108.66 154 107V93C154 91.34 155.34 90 157 90Z" fill="#fff5de" fill-opacity="0.78"/>
<path d="M121 59C124.62 59 127.91 60.48 130.29 62.87C132.68 65.25 134.16 68.54 134.16 72.16V150.84C134.16 157.47 139.53 162.84 146.16 162.84H169.27C172.33 162.84 175.19 164.34 176.93 166.85" fill="none" stroke="#f4e3b7" stroke-opacity="0.5" stroke-width="6" stroke-linecap="round"/>
</svg>
